<?xml version="1.0" encoding="UTF-8"?>
<!DOCTYPE svg PUBLIC "-//W3C//DTD SVG 1.1//EN" "http://www.w3.org/Graphics/SVG/1.1/DTD/svg11.dtd">
<!-- Creator: CorelDRAW -->
<svg xmlns="http://www.w3.org/2000/svg" xml:space="preserve" width="2048px" height="2048px" style="shape-rendering:geometricPrecision; text-rendering:geometricPrecision; image-rendering:optimizeQuality; fill-rule:evenodd; clip-rule:evenodd"
viewBox="0 0 2048 2048"
 xmlns:xlink="http://www.w3.org/1999/xlink">
 <defs>
  <style type="text/css">
   <![CDATA[
    .fil1 {fill:none}
    .fil0 {fill:#212121;fill-rule:nonzero}
   ]]>
  </style>
 </defs>
 <g id="Layer_x0020_1">
  <metadata id="CorelCorpID_0Corel-Layer"/>
  <path class="fil0" d="M1024 255.998c212.073,0 404.074,85.9631 543.057,224.945 138.982,138.983 224.945,330.984 224.945,543.057 0,212.073 -85.9631,404.074 -224.945,543.057 -138.983,138.982 -330.984,224.945 -543.057,224.945 -212.073,0 -404.074,-85.9631 -543.057,-224.945 -138.982,-138.983 -224.945,-330.984 -224.945,-543.057 0,-212.073 85.9631,-404.074 224.945,-543.057 138.983,-138.982 330.984,-224.945 543.057,-224.945zm497.807 270.195c-127.397,-127.396 -303.398,-206.193 -497.807,-206.193 -194.408,0 -370.409,78.7973 -497.807,206.193 -127.396,127.397 -206.193,303.398 -206.193,497.807 0,194.408 78.7973,370.409 206.193,497.807 127.397,127.396 303.398,206.193 497.807,206.193 194.408,0 370.409,-78.7973 497.807,-206.193 127.396,-127.397 206.193,-303.398 206.193,-497.807 0,-194.408 -78.7973,-370.409 -206.193,-497.807z"/>
  <path class="fil0" d="M1024 447.998c159.054,0 303.056,64.4741 407.292,168.71 104.236,104.236 168.71,248.237 168.71,407.292 0,159.054 -64.4741,303.056 -168.71,407.292 -104.236,104.236 -248.237,168.71 -407.292,168.71 -159.054,0 -303.056,-64.4741 -407.292,-168.71 -104.236,-104.236 -168.71,-248.237 -168.71,-407.292 0,-159.054 64.4741,-303.056 168.71,-407.292 104.236,-104.236 248.237,-168.71 407.292,-168.71zm362.041 213.96c-92.6516,-92.6516 -220.653,-149.959 -362.041,-149.959 -141.389,0 -269.39,57.3071 -362.041,149.959 -92.6516,92.6516 -149.959,220.653 -149.959,362.041 0,141.389 57.3071,269.39 149.959,362.041 92.6516,92.6516 220.653,149.959 362.041,149.959 141.389,0 269.39,-57.3071 362.041,-149.959 92.6516,-92.6516 149.959,-220.653 149.959,-362.041 0,-141.389 -57.3071,-269.39 -149.959,-362.041z"/>
  <path class="fil0" d="M1024 608.761c114.662,0 218.471,46.4788 293.616,121.623 75.1442,75.1453 121.623,178.955 121.623,293.616 0,114.662 -46.4788,218.471 -121.623,293.616 -75.1453,75.1442 -178.955,121.623 -293.616,121.623 -114.662,0 -218.471,-46.4788 -293.616,-121.623 -75.1442,-75.1453 -121.623,-178.955 -121.623,-293.616 0,-114.662 46.4788,-218.471 121.623,-293.616 75.1453,-75.1442 178.955,-121.623 293.616,-121.623zm248.366 166.873c-63.5599,-63.5587 -151.37,-102.872 -248.366,-102.872 -96.9957,0 -184.806,39.313 -248.366,102.872 -63.5587,63.5599 -102.872,151.37 -102.872,248.366 0,96.9957 39.313,184.806 102.872,248.366 63.5599,63.5587 151.37,102.872 248.366,102.872 96.9957,0 184.806,-39.313 248.366,-102.872 63.5587,-63.5599 102.872,-151.37 102.872,-248.366 0,-96.9957 -39.313,-184.806 -102.872,-248.366z"/>
  <path class="fil0" d="M1024 831.999c53.015,0 101.016,21.4937 135.763,56.2382 34.7445,34.7469 56.2382,82.7481 56.2382,135.763 0,53.015 -21.4937,101.016 -56.2382,135.763 -34.7469,34.7445 -82.7481,56.2382 -135.763,56.2382 -53.015,0 -101.016,-21.4937 -135.763,-56.2382 -34.7445,-34.7469 -56.2382,-82.7481 -56.2382,-135.763 0,-53.015 21.4937,-101.016 56.2382,-135.763 34.7469,-34.7445 82.7481,-56.2382 135.763,-56.2382zm90.5127 101.489c-23.1603,-23.1603 -55.1634,-37.487 -90.5127,-37.487 -35.3492,0 -67.3524,14.3268 -90.5127,37.487 -23.1603,23.1603 -37.487,55.1634 -37.487,90.5127 0,35.3492 14.3268,67.3524 37.487,90.5127 23.1603,23.1603 55.1634,37.487 90.5127,37.487 35.3492,0 67.3524,-14.3268 90.5127,-37.487 23.1603,-23.1603 37.487,-55.1634 37.487,-90.5127 0,-35.3492 -14.3268,-67.3524 -37.487,-90.5127z"/>
 </g>
 <rect class="fil1" width="2048" height="2048"/>
</svg>
