<?xml version="1.0" encoding="UTF-8"?>
<!DOCTYPE svg PUBLIC "-//W3C//DTD SVG 1.1//EN" "http://www.w3.org/Graphics/SVG/1.1/DTD/svg11.dtd">
<!-- Creator: CorelDRAW -->
<svg xmlns="http://www.w3.org/2000/svg" xml:space="preserve" width="2048px" height="2048px" style="shape-rendering:geometricPrecision; text-rendering:geometricPrecision; image-rendering:optimizeQuality; fill-rule:evenodd; clip-rule:evenodd"
viewBox="0 0 2048 2048"
 xmlns:xlink="http://www.w3.org/1999/xlink">
 <defs>
  <style type="text/css">
   <![CDATA[
    .fil1 {fill:none}
    .fil0 {fill:#212121;fill-rule:nonzero}
   ]]>
  </style>
 </defs>
 <g id="Layer_x0020_1">
  <metadata id="CorelCorpID_0Corel-Layer"/>
  <path class="fil0" d="M1792 1024c0,-17.6728 -14.328,-32.0008 -32.0008,-32.0008 -17.6728,0 -32.0008,14.328 -32.0008,32.0008 0,194.407 -78.7973,370.409 -206.193,497.806 -127.396,127.396 -303.398,206.193 -497.806,206.193 -194.407,0 -370.409,-78.7973 -497.806,-206.193 -127.396,-127.396 -206.193,-303.398 -206.193,-497.806 0,-194.407 78.7973,-370.409 206.193,-497.806 127.396,-127.396 303.398,-206.193 497.806,-206.193 17.6728,0 32.0008,-14.328 32.0008,-32.0008 0,-17.6728 -14.328,-32.0008 -32.0008,-32.0008 -212.073,0 -404.074,85.9631 -543.056,224.945 -138.982,138.982 -224.945,330.983 -224.945,543.056 0,212.073 85.9631,404.074 224.945,543.056 138.982,138.982 330.983,224.945 543.056,224.945 212.073,0 404.074,-85.9631 543.056,-224.945 138.982,-138.982 224.945,-330.983 224.945,-543.056z"/>
  <path class="fil0" d="M735.999 870.998c-17.6728,0 -32.0008,14.328 -32.0008,32.0008 0,17.6728 14.328,32.0008 32.0008,32.0008l576.003 0c17.6728,0 32.0008,-14.328 32.0008,-32.0008 0,-17.6728 -14.328,-32.0008 -32.0008,-32.0008l-576.003 0z"/>
  <path class="fil0" d="M735.999 1113c-17.6728,0 -32.0008,14.328 -32.0008,32.0008 0,17.6728 14.328,32.0008 32.0008,32.0008l576.003 0c17.6728,0 32.0008,-14.328 32.0008,-32.0008 0,-17.6728 -14.328,-32.0008 -32.0008,-32.0008l-576.003 0z"/>
 </g>
 <rect class="fil1" width="2048" height="2048"/>
</svg>
