<svg xmlns="http://www.w3.org/2000/svg" viewBox="0 0 32 32"><defs><style>.cls-1{fill:#231f20;}</style></defs><g id="discount_loop" data-name="discount loop"><path class="cls-1" d="M25.69,25.66l-1.05-2.11a1,1,0,1,0-1.8.9l1.05,2.1a1,1,0,0,1-.44,1.34,1,1,0,0,1-1.35-.44L19,21.18l.9-.45h0l.89-.44.34.66a1,1,0,1,0,1.78-.89l-.77-1.56a1,1,0,0,0-1.34-.45l-.9.45L19,16.65A8,8,0,0,0,21.69,6.43h0A8,8,0,1,0,14.54,18a7.91,7.91,0,0,0,2.63-.46l.92,1.85-.89.44a1,1,0,0,0-.45,1.35l3.56,7.16A3,3,0,0,0,23,30a2.93,2.93,0,0,0,1.34-.32A3,3,0,0,0,25.69,25.66Zm-13.07-10A6,6,0,0,1,14.52,4,6,6,0,0,1,19.9,7.32h0a6,6,0,0,1-7.28,8.36Z"/><path class="cls-1" d="M17.74,6.79a1,1,0,0,0-1.42,0l-5,5a1,1,0,0,0,0,1.41,1,1,0,0,0,.71.29,1,1,0,0,0,.71-.29l5-5A1,1,0,0,0,17.74,6.79Z"/><path class="cls-1" d="M12.05,8.49a1,1,0,0,0,0-2h0a1,1,0,1,0,0,2Z"/><path class="cls-1" d="M18.05,12.49a1,1,0,0,0-1-1h0a1,1,0,1,0,1,1Z"/></g></svg>