<svg xmlns="http://www.w3.org/2000/svg" width="128" height="128" viewBox="0 0 128 128">
  <title>MICROPHONE</title>
  <path d="M98.705,44.529H90.517V31.073A26.337,26.337,0,0,0,87.6,19a1.729,1.729,0,0,0-.181-.353,26.5,26.5,0,0,0-46.832,0A1.729,1.729,0,0,0,40.4,19a26.337,26.337,0,0,0-2.92,12.072V44.529H29.3a1.75,1.75,0,0,0-1.75,1.75V61.485A36.5,36.5,0,0,0,62.25,97.9v11.5h-15.1a1.748,1.748,0,0,0-1.519.881l-6.035,10.545a1.75,1.75,0,0,0,1.518,2.619H86.89a1.75,1.75,0,0,0,1.518-2.619l-6.035-10.545a1.748,1.748,0,0,0-1.519-.881H65.75V97.9a36.5,36.5,0,0,0,34.705-36.411V46.279A1.75,1.75,0,0,0,98.705,44.529ZM83.872,119.943H44.128L48.16,112.9H79.84ZM82.844,17.881H76.383a1.75,1.75,0,0,0,0,3.5h8.486a22.865,22.865,0,0,1,2.148,9.692v.132H76.383a1.75,1.75,0,0,0,0,3.5H87.017v9.824H65.75V8.13A23.015,23.015,0,0,1,82.844,17.881Zm-5.57,62.39L71.941,65.666a1.748,1.748,0,0,0-1.643-1.15H57.7a1.748,1.748,0,0,0-1.643,1.15L50.726,80.271a23,23,0,0,1-9.743-18.786V48.029H87.017V61.485A23,23,0,0,1,77.274,80.271ZM74.218,82.1a22.952,22.952,0,0,1-20.436,0l5.144-14.086H69.074Zm-33.235-47.4H51.617a1.75,1.75,0,1,0,0-3.5H40.983v-.132a22.865,22.865,0,0,1,2.148-9.692h8.486a1.75,1.75,0,0,0,0-3.5H45.156A23.015,23.015,0,0,1,62.25,8.13v36.4H40.983Zm55.972,26.78a32.955,32.955,0,1,1-65.91,0V48.029h6.438V61.485A26.525,26.525,0,0,0,50.64,84.376a1.858,1.858,0,0,0,.175.1,26.421,26.421,0,0,0,26.37,0,1.858,1.858,0,0,0,.175-.1A26.525,26.525,0,0,0,90.517,61.485V48.029h6.438Z" fill="#241c49" stroke="#0a2119" stroke-miterlimit="10"/>
</svg>
