<svg xmlns="http://www.w3.org/2000/svg" viewBox="0 0 24 24"><title>Radio</title><g id="Radio"><path d="M20,7H10.62l5.22-2.38A2,2,0,1,0,15,2.8C4.28,7.68,6.37,7,4,7a3,3,0,0,0-3,3V20a3,3,0,0,0,3,3H20a3,3,0,0,0,3-3V10A3,3,0,0,0,20,7Zm1,13a1,1,0,0,1-1,1H4a1,1,0,0,1-1-1V10A1,1,0,0,1,4,9H20a1,1,0,0,1,1,1Z"/><path d="M19,12.5a1.5,1.5,0,0,1-3,0A1.5,1.5,0,0,1,19,12.5Z"/><path d="M19,16.5a1.5,1.5,0,0,1-3,0A1.5,1.5,0,0,1,19,16.5Z"/><path d="M13,11H6a1,1,0,0,0,0,2h7A1,1,0,0,0,13,11Z"/><path d="M13,14H6a1,1,0,0,0,0,2h7A1,1,0,0,0,13,14Z"/><path d="M13,17H6a1,1,0,0,0,0,2h7A1,1,0,0,0,13,17Z"/></g></svg>